<svg width="664" height="664" viewBox="0 0 664 664" fill="none" xmlns="http://www.w3.org/2000/svg">
<mask id="mask0_10_960" style="mask-type:luminance" maskUnits="userSpaceOnUse" x="0" y="0" width="664" height="664">
<path d="M0 0H664V664H0V0Z" fill="white"/>
</mask>
<g mask="url(#mask0_10_960)">
<mask id="mask1_10_960" style="mask-type:luminance" maskUnits="userSpaceOnUse" x="-5" y="-5" width="673" height="673">
<path d="M-4.10938 4.59375L658.828 -4.32812L667.755 658.609L4.8125 667.531L-4.10938 4.59375Z" fill="white"/>
</mask>
<g mask="url(#mask1_10_960)">
<mask id="mask2_10_960" style="mask-type:luminance" maskUnits="userSpaceOnUse" x="-5" y="-5" width="674" height="673">
<path d="M-4.10938 4.59359L659.172 -4.3335L668.104 658.948L4.81771 667.875L-4.10938 4.59359Z" fill="white"/>
</mask>
<g mask="url(#mask2_10_960)">
<mask id="mask3_10_960" style="mask-type:luminance" maskUnits="userSpaceOnUse" x="0" y="0" width="664" height="664">
<path d="M327.531 0.130234C144.37 2.59378 -2.10919 153.073 0.354355 336.234C2.8179 519.396 153.297 665.88 336.459 663.412C519.62 660.948 666.104 510.469 663.636 327.307C661.172 144.146 510.693 -2.33331 327.531 0.130234Z" fill="white"/>
</mask>
<g mask="url(#mask3_10_960)">
<path d="M327.532 0.130389C144.37 2.59393 -2.10908 153.073 0.354466 336.235C2.81801 519.396 153.297 665.88 336.459 663.412C519.62 660.948 666.104 510.469 663.636 327.307C661.172 144.146 510.693 -2.33315 327.532 0.130389Z" stroke="#FF5757" stroke-width="24"/>
</g>
</g>
</g>
</g>
<mask id="mask4_10_960" style="mask-type:luminance" maskUnits="userSpaceOnUse" x="162" y="161" width="345" height="345">
<path d="M162.667 161.333H506.667V505.333H162.667V161.333Z" fill="white"/>
</mask>
<g mask="url(#mask4_10_960)">
<mask id="mask5_10_960" style="mask-type:luminance" maskUnits="userSpaceOnUse" x="162" y="161" width="345" height="345">
<path d="M504.343 161.031L506.38 503.026L164.385 505.062L162.349 163.067L504.343 161.031Z" fill="white"/>
</mask>
<g mask="url(#mask5_10_960)">
<mask id="mask6_10_960" style="mask-type:luminance" maskUnits="userSpaceOnUse" x="162" y="161" width="345" height="345">
<path d="M504.343 161.031L506.38 503.026L164.385 505.062L162.349 163.067L504.343 161.031Z" fill="white"/>
</mask>
<g mask="url(#mask6_10_960)">
<path d="M163.385 334.057C162.822 239.593 239.416 162.609 333.354 162.051C427.291 161.489 504.796 237.557 505.359 332.02C505.927 426.489 429.859 503.468 335.39 504.031C240.927 504.593 163.942 427.999 163.385 334.057ZM494.807 332.083C494.276 243.421 422.078 172.077 333.416 172.604C244.755 173.135 173.411 245.333 173.937 333.994C174.468 422.656 246.666 494.005 335.328 493.473C423.989 492.947 495.333 420.218 494.807 332.083Z" fill="#FF5757"/>
</g>
</g>
</g>
<mask id="mask7_10_960" style="mask-type:luminance" maskUnits="userSpaceOnUse" x="192" y="249" width="147" height="113">
<path d="M192 249.333H338.667V361.333H192V249.333Z" fill="white"/>
</mask>
<g mask="url(#mask7_10_960)">
<mask id="mask8_10_960" style="mask-type:luminance" maskUnits="userSpaceOnUse" x="162" y="200" width="202" height="188">
<path d="M162.656 308.609L223.964 200.823L363.042 279.932L301.729 387.719L162.656 308.609Z" fill="white"/>
</mask>
<g mask="url(#mask8_10_960)">
<mask id="mask9_10_960" style="mask-type:luminance" maskUnits="userSpaceOnUse" x="162" y="200" width="202" height="188">
<path d="M162.656 308.609L223.964 200.823L363.042 279.932L301.729 387.719L162.656 308.609Z" fill="white"/>
</mask>
<g mask="url(#mask9_10_960)">
<path d="M192.927 255.583C262.505 242.068 319.375 255.391 333.235 286.036C337.271 294.953 340.969 312.661 333.453 329.443C331.646 333.229 329.432 336.771 326.823 340.062C324.208 343.354 321.261 346.307 317.979 348.932C314.698 351.557 311.167 353.776 307.38 355.604C303.599 357.427 299.656 358.802 295.563 359.734C263.391 365.838 220.042 324.786 192.927 255.583Z" fill="#FF5757"/>
</g>
</g>
</g>
<mask id="mask10_10_960" style="mask-type:luminance" maskUnits="userSpaceOnUse" x="301" y="301" width="63" height="63">
<path d="M301.333 301.333H364V364H301.333V301.333Z" fill="white"/>
</mask>
<g mask="url(#mask10_10_960)">
<mask id="mask11_10_960" style="mask-type:luminance" maskUnits="userSpaceOnUse" x="290" y="290" width="86" height="86">
<path d="M343.859 290.802L375.557 344.088L322.276 375.786L290.578 322.505L343.859 290.802Z" fill="white"/>
</mask>
<g mask="url(#mask11_10_960)">
<mask id="mask12_10_960" style="mask-type:luminance" maskUnits="userSpaceOnUse" x="290" y="290" width="86" height="86">
<path d="M343.859 290.802L375.557 344.088L322.276 375.786L290.578 322.505L343.859 290.802Z" fill="white"/>
</mask>
<g mask="url(#mask12_10_960)">
<path d="M348.885 359.536C348.021 360.052 347.13 360.526 346.213 360.953C345.302 361.38 344.37 361.766 343.416 362.099C342.463 362.437 341.5 362.729 340.521 362.969C339.541 363.214 338.552 363.406 337.552 363.552C336.552 363.693 335.547 363.792 334.541 363.839C333.531 363.885 332.526 363.88 331.515 363.828C330.51 363.776 329.505 363.672 328.505 363.521C327.51 363.37 326.521 363.167 325.541 362.922C324.562 362.672 323.599 362.375 322.651 362.031C321.703 361.687 320.771 361.302 319.859 360.865C318.948 360.432 318.062 359.953 317.198 359.432C316.333 358.911 315.5 358.349 314.687 357.745C313.88 357.141 313.104 356.495 312.359 355.818C311.609 355.135 310.901 354.422 310.224 353.672C309.552 352.922 308.911 352.141 308.312 351.328C307.713 350.516 307.156 349.672 306.64 348.807C306.125 347.937 305.656 347.047 305.224 346.135C304.797 345.219 304.416 344.286 304.078 343.339C303.739 342.385 303.453 341.417 303.208 340.437C302.969 339.458 302.771 338.469 302.63 337.469C302.484 336.474 302.39 335.469 302.344 334.458C302.297 333.453 302.297 332.443 302.354 331.437C302.406 330.427 302.505 329.422 302.656 328.427C302.807 327.427 303.01 326.443 303.26 325.464C303.505 324.484 303.802 323.521 304.146 322.573C304.489 321.62 304.875 320.693 305.312 319.781C305.745 318.87 306.224 317.979 306.745 317.12C307.271 316.255 307.833 315.417 308.437 314.609C309.036 313.797 309.682 313.021 310.359 312.276C311.041 311.531 311.755 310.818 312.505 310.146C313.255 309.469 314.036 308.833 314.849 308.234C315.666 307.635 316.505 307.078 317.37 306.562C318.239 306.047 319.13 305.573 320.041 305.146C320.958 304.714 321.89 304.333 322.844 303.995C323.791 303.661 324.76 303.37 325.739 303.13C326.719 302.885 327.708 302.693 328.708 302.547C329.708 302.401 330.708 302.307 331.719 302.26C332.729 302.214 333.734 302.219 334.745 302.271C335.75 302.323 336.755 302.427 337.75 302.578C338.75 302.729 339.739 302.927 340.719 303.177C341.692 303.427 342.656 303.719 343.609 304.062C344.557 304.406 345.489 304.797 346.401 305.229C347.307 305.667 348.198 306.146 349.062 306.667C349.927 307.187 350.76 307.75 351.573 308.354C352.38 308.958 353.156 309.599 353.901 310.281C354.646 310.958 355.359 311.677 356.036 312.427C356.708 313.177 357.349 313.958 357.942 314.771C358.541 315.583 359.099 316.422 359.614 317.292C360.135 318.156 360.604 319.047 361.036 319.964C361.463 320.875 361.844 321.807 362.182 322.76C362.521 323.714 362.807 324.677 363.052 325.656C363.291 326.641 363.484 327.625 363.63 328.625C363.776 329.625 363.87 330.63 363.916 331.635C363.963 332.646 363.958 333.656 363.906 334.661C363.854 335.672 363.755 336.672 363.599 337.672C363.448 338.667 363.25 339.656 363 340.635C362.755 341.615 362.458 342.578 362.114 343.526C361.771 344.474 361.38 345.406 360.948 346.318C360.515 347.229 360.036 348.115 359.515 348.979C358.989 349.844 358.427 350.682 357.823 351.49C357.219 352.297 356.578 353.073 355.896 353.823C355.219 354.568 354.5 355.276 353.75 355.953C353 356.63 352.219 357.266 351.406 357.865C350.594 358.464 349.755 359.021 348.885 359.536Z" fill="#FF5757"/>
</g>
</g>
</g>
<mask id="mask13_10_960" style="mask-type:luminance" maskUnits="userSpaceOnUse" x="329" y="248" width="145" height="111">
<path d="M329.333 248H473.334V358.667H329.333V248Z" fill="white"/>
</mask>
<g mask="url(#mask13_10_960)">
<mask id="mask14_10_960" style="mask-type:luminance" maskUnits="userSpaceOnUse" x="304" y="198" width="202" height="190">
<path d="M442.068 198.693L505.469 305.261L367.964 387.068L304.562 280.5L442.068 198.693Z" fill="white"/>
</mask>
<g mask="url(#mask14_10_960)">
<mask id="mask15_10_960" style="mask-type:luminance" maskUnits="userSpaceOnUse" x="304" y="198" width="202" height="190">
<path d="M442.068 198.693L505.469 305.261L367.964 387.068L304.562 280.5L442.068 198.693Z" fill="white"/>
</mask>
<g mask="url(#mask15_10_960)">
<path d="M473.203 251.213C450.568 318.38 410.875 361.24 377.391 358.141C367.646 357.245 350.417 351.708 339.547 336.88C337.146 333.432 335.162 329.76 333.594 325.865C332.021 321.969 330.912 317.943 330.25 313.797C329.594 309.646 329.406 305.474 329.688 301.286C329.974 297.094 330.724 292.984 331.938 288.963C342.531 257.984 399.641 240.583 473.203 251.213Z" fill="#FF5757"/>
</g>
</g>
</g>
<mask id="mask16_10_960" style="mask-type:luminance" maskUnits="userSpaceOnUse" x="281" y="333" width="102" height="161">
<path d="M281.333 333.333H382.667V493.333H281.333V333.333Z" fill="white"/>
</mask>
<g mask="url(#mask16_10_960)">
<mask id="mask17_10_960" style="mask-type:luminance" maskUnits="userSpaceOnUse" x="268" y="331" width="128" height="163">
<path d="M395.833 491.432L271.854 493.729L268.891 333.755L392.865 331.458L395.833 491.432Z" fill="white"/>
</mask>
<g mask="url(#mask17_10_960)">
<mask id="mask18_10_960" style="mask-type:luminance" maskUnits="userSpaceOnUse" x="268" y="331" width="128" height="163">
<path d="M395.833 491.432L271.854 493.729L268.891 333.755L392.865 331.458L395.833 491.432Z" fill="white"/>
</mask>
<g mask="url(#mask18_10_960)">
<path d="M334.787 492.469C287.646 439.536 270.073 383.828 289.349 356.276C294.953 348.25 308.297 336.026 326.563 333.927C330.745 333.547 334.917 333.646 339.078 334.208C343.245 334.776 347.292 335.802 351.219 337.281C355.151 338.765 358.865 340.667 362.365 342.995C365.865 345.318 369.063 348 371.953 351.047C393.62 375.594 380.453 433.828 334.787 492.469Z" fill="#FF5757"/>
</g>
</g>
</g>
<path d="M657.307 331.12L496.968 332.078" stroke="#FF5757" stroke-width="12"/>
<path d="M335.38 660.88L334.38 493.354" stroke="#FF5757" stroke-width="12"/>
<path d="M0.35401 336.24L170.588 335.224" stroke="#FF5757" stroke-width="12"/>
<path d="M327.531 0.135267L328.547 170.187" stroke="#FF5757" stroke-width="12"/>
<path d="M569.823 107.239L454.338 216.703" stroke="#FF5757" stroke-width="12"/>
<path d="M211.411 446.75L95.9322 556.213" stroke="#FF5757" stroke-width="12"/>
<path d="M459.51 439.917L575.052 548.896" stroke="#FF5757" stroke-width="12"/>
<path d="M96.2133 107.859L211.755 216.838" stroke="#FF5757" stroke-width="12"/>
<mask id="mask19_10_960" style="mask-type:luminance" maskUnits="userSpaceOnUse" x="70" y="210" width="65" height="64">
<path d="M70.6665 210.667H134.667V273.333H70.6665V210.667Z" fill="white"/>
</mask>
<g mask="url(#mask19_10_960)">
<mask id="mask20_10_960" style="mask-type:luminance" maskUnits="userSpaceOnUse" x="71" y="210" width="63" height="63">
<path d="M71.1821 210.906L133.193 210.536L133.562 272.552L71.5467 272.922L71.1821 210.906Z" fill="white"/>
</mask>
<g mask="url(#mask20_10_960)">
<mask id="mask21_10_960" style="mask-type:luminance" maskUnits="userSpaceOnUse" x="71" y="210" width="63" height="63">
<path d="M102.187 210.718C85.0623 210.822 71.2602 224.786 71.3644 241.911C71.4685 259.036 85.4321 272.838 102.557 272.734C119.682 272.63 133.479 258.666 133.38 241.541C133.276 224.416 119.312 210.619 102.187 210.718Z" fill="white"/>
</mask>
<g mask="url(#mask21_10_960)">
<path d="M71.1821 210.906L133.193 210.536L133.562 272.552L71.5467 272.922L71.1821 210.906Z" fill="#FF5757"/>
</g>
</g>
</g>
<mask id="mask22_10_960" style="mask-type:luminance" maskUnits="userSpaceOnUse" x="77" y="388" width="65" height="64">
<path d="M77.3335 388H141.333V452H77.3335V388Z" fill="white"/>
</mask>
<g mask="url(#mask22_10_960)">
<mask id="mask23_10_960" style="mask-type:luminance" maskUnits="userSpaceOnUse" x="78" y="388" width="63" height="64">
<path d="M78.2656 389.078L140.281 388.708L140.651 450.724L78.6354 451.094L78.2656 389.078Z" fill="white"/>
</mask>
<g mask="url(#mask23_10_960)">
<mask id="mask24_10_960" style="mask-type:luminance" maskUnits="userSpaceOnUse" x="78" y="388" width="63" height="63">
<path d="M109.276 388.896C92.1511 389 78.3491 402.964 78.4532 420.089C78.5522 437.214 92.5209 451.01 109.641 450.911C126.766 450.807 140.568 436.844 140.464 419.719C140.365 402.594 126.396 388.792 109.276 388.896Z" fill="white"/>
</mask>
<g mask="url(#mask24_10_960)">
<path d="M78.2656 389.078L140.281 388.708L140.651 450.724L78.6354 451.094L78.2656 389.078Z" fill="#FF5757"/>
</g>
</g>
</g>
<mask id="mask25_10_960" style="mask-type:luminance" maskUnits="userSpaceOnUse" x="201" y="522" width="65" height="64">
<path d="M201.333 522.667H265.333V585.333H201.333V522.667Z" fill="white"/>
</mask>
<g mask="url(#mask25_10_960)">
<mask id="mask26_10_960" style="mask-type:luminance" maskUnits="userSpaceOnUse" x="202" y="522" width="63" height="64">
<path d="M202.276 523.292L264.292 522.922L264.662 584.932L202.646 585.302L202.276 523.292Z" fill="white"/>
</mask>
<g mask="url(#mask26_10_960)">
<mask id="mask27_10_960" style="mask-type:luminance" maskUnits="userSpaceOnUse" x="202" y="523" width="63" height="63">
<path d="M233.282 523.104C216.157 523.208 202.36 537.172 202.464 554.297C202.563 571.422 216.526 585.224 233.651 585.12C250.776 585.016 264.579 571.052 264.474 553.927C264.375 536.802 250.407 523.005 233.282 523.104Z" fill="white"/>
</mask>
<g mask="url(#mask27_10_960)">
<path d="M202.276 523.292L264.292 522.922L264.662 584.932L202.646 585.302L202.276 523.292Z" fill="#FF5757"/>
</g>
</g>
</g>
<mask id="mask28_10_960" style="mask-type:luminance" maskUnits="userSpaceOnUse" x="400" y="522" width="63" height="64">
<path d="M400 522.667H462.667V585.333H400V522.667Z" fill="white"/>
</mask>
<g mask="url(#mask28_10_960)">
<mask id="mask29_10_960" style="mask-type:luminance" maskUnits="userSpaceOnUse" x="400" y="522" width="63" height="64">
<path d="M400.057 523.281L462.068 522.911L462.437 584.927L400.427 585.297L400.057 523.281Z" fill="white"/>
</mask>
<g mask="url(#mask29_10_960)">
<mask id="mask30_10_960" style="mask-type:luminance" maskUnits="userSpaceOnUse" x="400" y="523" width="63" height="63">
<path d="M431.062 523.094C413.937 523.198 400.14 537.161 400.239 554.286C400.343 571.412 414.307 585.214 431.432 585.109C448.557 585.005 462.359 571.042 462.255 553.917C462.151 536.792 448.187 522.995 431.062 523.094Z" fill="white"/>
</mask>
<g mask="url(#mask30_10_960)">
<path d="M400.057 523.281L462.068 522.912L462.437 584.927L400.427 585.297L400.057 523.281Z" fill="#FF5757"/>
</g>
</g>
</g>
<mask id="mask31_10_960" style="mask-type:luminance" maskUnits="userSpaceOnUse" x="532" y="385" width="64" height="65">
<path d="M532 385.333H596V449.333H532V385.333Z" fill="white"/>
</mask>
<g mask="url(#mask31_10_960)">
<mask id="mask32_10_960" style="mask-type:luminance" maskUnits="userSpaceOnUse" x="532" y="386" width="64" height="63">
<path d="M532.802 386.37L594.813 386L595.182 448.016L533.172 448.385L532.802 386.37Z" fill="white"/>
</mask>
<g mask="url(#mask32_10_960)">
<mask id="mask33_10_960" style="mask-type:luminance" maskUnits="userSpaceOnUse" x="532" y="386" width="64" height="63">
<path d="M563.807 386.188C546.682 386.287 532.885 400.255 532.984 417.38C533.089 434.505 547.052 448.302 564.177 448.203C581.302 448.099 595.104 434.136 595 417.011C594.896 399.886 580.932 386.083 563.807 386.188Z" fill="white"/>
</mask>
<g mask="url(#mask33_10_960)">
<path d="M532.802 386.37L594.813 386L595.182 448.016L533.172 448.385L532.802 386.37Z" fill="#FF5757"/>
</g>
</g>
</g>
<mask id="mask34_10_960" style="mask-type:luminance" maskUnits="userSpaceOnUse" x="530" y="206" width="65" height="65">
<path d="M530.667 206.667H594.667V270.667H530.667V206.667Z" fill="white"/>
</mask>
<g mask="url(#mask34_10_960)">
<mask id="mask35_10_960" style="mask-type:luminance" maskUnits="userSpaceOnUse" x="531" y="207" width="63" height="64">
<path d="M531.573 208.161L593.588 207.792L593.958 269.807L531.943 270.177L531.573 208.161Z" fill="white"/>
</mask>
<g mask="url(#mask35_10_960)">
<mask id="mask36_10_960" style="mask-type:luminance" maskUnits="userSpaceOnUse" x="531" y="207" width="63" height="63">
<path d="M562.578 207.979C545.453 208.078 531.656 222.042 531.755 239.167C531.859 256.292 545.823 270.094 562.948 269.99C580.073 269.891 593.875 255.922 593.771 238.797C593.672 221.672 579.703 207.875 562.578 207.979Z" fill="white"/>
</mask>
<g mask="url(#mask36_10_960)">
<path d="M531.573 208.161L593.588 207.792L593.958 269.807L531.943 270.177L531.573 208.161Z" fill="#FF5757"/>
</g>
</g>
</g>
<mask id="mask37_10_960" style="mask-type:luminance" maskUnits="userSpaceOnUse" x="402" y="69" width="64" height="63">
<path d="M402.667 69.333H465.333V132H402.667V69.333Z" fill="white"/>
</mask>
<g mask="url(#mask37_10_960)">
<mask id="mask38_10_960" style="mask-type:luminance" maskUnits="userSpaceOnUse" x="402" y="69" width="63" height="63">
<path d="M402.599 69.5778L464.614 69.208L464.984 131.224L402.968 131.593L402.599 69.5778Z" fill="white"/>
</mask>
<g mask="url(#mask38_10_960)">
<mask id="mask39_10_960" style="mask-type:luminance" maskUnits="userSpaceOnUse" x="402" y="69" width="63" height="63">
<path d="M433.609 69.3956C416.484 69.4946 402.682 83.4581 402.786 100.583C402.885 117.708 416.854 131.51 433.979 131.406C451.104 131.307 464.901 117.338 464.797 100.213C464.698 83.0883 450.734 69.2914 433.609 69.3956Z" fill="white"/>
</mask>
<g mask="url(#mask39_10_960)">
<path d="M402.599 69.5778L464.614 69.208L464.984 131.224L402.968 131.593L402.599 69.5778Z" fill="#FF5757"/>
</g>
</g>
</g>
<mask id="mask40_10_960" style="mask-type:luminance" maskUnits="userSpaceOnUse" x="198" y="69" width="65" height="65">
<path d="M198.667 69.333H262.667V133.333H198.667V69.333Z" fill="white"/>
</mask>
<g mask="url(#mask40_10_960)">
<mask id="mask41_10_960" style="mask-type:luminance" maskUnits="userSpaceOnUse" x="199" y="70" width="63" height="63">
<path d="M199.463 70.7863L261.479 70.4165L261.849 132.432L199.833 132.802L199.463 70.7863Z" fill="white"/>
</mask>
<g mask="url(#mask41_10_960)">
<mask id="mask42_10_960" style="mask-type:luminance" maskUnits="userSpaceOnUse" x="199" y="70" width="63" height="63">
<path d="M230.474 70.6041C213.349 70.7083 199.547 84.6718 199.651 101.797C199.75 118.922 213.719 132.719 230.844 132.62C247.969 132.516 261.766 118.552 261.661 101.427C261.562 84.302 247.599 70.4999 230.474 70.6041Z" fill="white"/>
</mask>
<g mask="url(#mask42_10_960)">
<path d="M199.463 70.7863L261.479 70.4165L261.849 132.432L199.833 132.802L199.463 70.7863Z" fill="#FF5757"/>
</g>
</g>
</g>
</svg>
